<svg width="651" height="567" viewBox="0 0 651 567" fill="none" xmlns="http://www.w3.org/2000/svg">
<g clip-path="url(#clip0_105_27)">
<path d="M411.24 481.4C409.834 481.4 408.427 481.14 407.079 480.614L405.214 479.869C402.412 478.749 400.167 476.53 399.016 473.744C397.865 470.942 397.881 467.806 399.089 465.025L440.157 369.828C442.589 364.14 449.183 361.515 454.876 363.979C460.553 366.427 463.173 373.02 460.725 378.697L432.574 443.943L537.167 379.661C582.303 351.604 611.131 311.38 622.834 260.151C634.782 208.364 626.714 159.323 598.845 114.364C598.48 113.765 598.173 113.156 597.928 112.51C569.871 68.1659 529.955 39.6979 479.277 27.8952C442.741 19.2181 407.595 20.8692 374.747 32.7337C368.929 34.864 362.507 31.8327 360.408 26.0149C358.293 20.2128 361.309 13.7753 367.127 11.6763C404.137 -1.70907 443.6 -3.5944 484.392 6.09293C541.6 19.4055 586.523 51.7383 617.872 102.166C618.252 102.781 618.575 103.437 618.836 104.109C649.158 153.838 657.852 208.03 644.664 265.162C631.596 322.402 599.393 367.35 548.94 398.709L417.112 479.756C415.31 480.849 413.289 481.401 411.242 481.401L411.24 481.4Z" fill="black"/>
<path d="M518.027 491.853C517.662 491.853 517.282 491.838 516.922 491.807L410.141 481.353C403.99 480.739 399.48 475.275 400.079 469.098C400.693 462.947 406.157 458.39 412.334 459.046L519.115 469.499C525.266 470.098 529.761 475.577 529.167 481.739C528.584 487.541 523.714 491.853 518.027 491.853L518.027 491.853Z" fill="black"/>
<path d="M217.08 566.667C200.553 566.667 183.815 564.802 166.897 561.037C109.689 546.865 65.0426 514.282 33.98 464.157C33.6154 463.558 33.2925 462.933 33.0477 462.276C2.46368 412.303 -6.48832 358.38 6.45434 301.956C20.3343 244.368 52.7823 199.478 102.938 168.383L257.138 73.1695C259.05 71.9872 261.425 71.4351 263.487 71.5029L272.456 71.8675C276.055 72.0185 279.373 73.8831 281.347 76.8831C283.326 79.8831 283.737 83.6642 282.467 87.0289L243.633 189.332C241.43 195.102 234.941 198.024 229.18 195.821C223.409 193.634 220.487 187.16 222.69 181.379L252.742 102.196L114.716 187.431C69.7676 215.295 40.6743 255.551 28.2516 307.071C16.5797 357.977 24.913 406.779 53.0116 451.977C53.3762 452.561 53.6835 453.17 53.9282 453.816C81.7722 497.972 121.496 526.706 172.007 539.228C207.674 547.15 242.752 545.733 276.002 534.973C281.908 533.061 288.21 536.301 290.106 542.176C292.017 548.051 288.793 554.368 282.903 556.28C261.539 563.196 239.512 566.665 217.075 566.665L217.08 566.667Z" fill="black"/>
<path d="M263.027 93.8933C262.824 93.8933 262.615 93.8933 262.412 93.8777L166.844 88.6433C160.662 88.3048 155.938 83.0288 156.271 76.8464C156.61 70.6797 161.75 65.9974 168.068 66.2734L263.636 71.5078C269.803 71.8568 274.542 77.1381 274.209 83.3048C273.876 89.2684 268.933 93.8933 263.027 93.8933L263.027 93.8933Z" fill="black"/>
</g>
<defs>
<clipPath id="clip0_105_27">
<rect width="651" height="567" fill="white"/>
</clipPath>
</defs>
</svg>
